<svg width="32" height="32" viewBox="0 0 32 32" fill="none" xmlns="http://www.w3.org/2000/svg">
<path fill-rule="evenodd" clip-rule="evenodd" d="M15.9998 5.33341C13.5962 5.33238 11.2626 6.14322 9.37746 7.6345C7.49232 9.12578 6.16613 11.2101 5.61389 13.5494C5.06165 15.8888 5.31574 18.3461 6.33496 20.523C7.35418 22.6999 9.07878 24.4687 11.2292 25.5427C11.5455 25.7012 11.7859 25.9788 11.8976 26.3145C12.0092 26.6501 11.9829 27.0164 11.8245 27.3327C11.6661 27.6491 11.3885 27.8895 11.0528 28.0011C10.7171 28.1128 10.3508 28.0865 10.0345 27.9281C7.81987 26.8202 5.95753 25.1175 4.65616 23.0107C3.3548 20.9039 2.66585 18.4764 2.6665 16.0001C2.6665 8.63608 8.63584 2.66675 15.9998 2.66675C23.3638 2.66675 29.3332 8.63608 29.3332 16.0001C29.3338 18.4764 28.6449 20.9039 27.3435 23.0107C26.0421 25.1175 24.1798 26.8202 21.9652 27.9281C21.8085 28.0065 21.638 28.0534 21.4633 28.0659C21.2886 28.0784 21.1131 28.0564 20.9469 28.0011C20.7807 27.9459 20.627 27.8584 20.4945 27.7437C20.3621 27.629 20.2536 27.4894 20.1752 27.3327C20.0967 27.1761 20.0499 27.0056 20.0374 26.8309C20.0248 26.6561 20.0468 26.4807 20.1021 26.3145C20.1574 26.1482 20.2449 25.9945 20.3596 25.8621C20.4742 25.7297 20.6139 25.6212 20.7705 25.5427C22.9209 24.4687 24.6455 22.6999 25.6647 20.523C26.6839 18.3461 26.938 15.8888 26.3858 13.5494C25.8335 11.2101 24.5074 9.12578 22.6222 7.6345C20.7371 6.14322 18.4035 5.33238 15.9998 5.33341ZM15.9998 10.6667C14.7978 10.6659 13.6307 11.0712 12.6878 11.8169C11.745 12.5626 11.0817 13.6049 10.8055 14.7748C10.5294 15.9448 10.6565 17.1737 11.1664 18.2623C11.6763 19.3509 12.5389 20.2353 13.6145 20.7721C13.9225 20.935 14.1544 21.212 14.2607 21.5438C14.367 21.8757 14.3392 22.2359 14.1833 22.5475C14.0273 22.859 13.7556 23.0972 13.4263 23.2109C13.0969 23.3247 12.7362 23.305 12.4212 23.1561C10.8096 22.3498 9.51742 21.0231 8.75397 19.3908C7.99052 17.7585 7.80051 15.9163 8.21472 14.1626C8.62894 12.4088 9.62311 10.8463 11.0362 9.72807C12.4493 8.60986 14.1985 8.00148 16.0005 8.00148C17.8025 8.00148 19.5517 8.60986 20.9648 9.72807C22.3779 10.8463 23.3721 12.4088 23.7863 14.1626C24.2005 15.9163 24.0105 17.7585 23.247 19.3908C22.4836 21.0231 21.1914 22.3498 19.5798 23.1561C19.2641 23.3113 18.8998 23.3354 18.5663 23.2231C18.2329 23.1109 17.9573 22.8714 17.7997 22.5568C17.6421 22.2423 17.6152 21.8782 17.7248 21.5439C17.8345 21.2095 18.0719 20.9321 18.3852 20.7721C19.4607 20.2353 20.3234 19.3509 20.8333 18.2623C21.3432 17.1737 21.4703 15.9448 21.1942 14.7748C20.918 13.6049 20.2547 12.5626 19.3119 11.8169C18.369 11.0712 17.2019 10.6659 15.9998 10.6667ZM13.3332 16.0001C13.3332 15.2928 13.6141 14.6146 14.1142 14.1145C14.6143 13.6144 15.2926 13.3334 15.9998 13.3334C16.7071 13.3334 17.3854 13.6144 17.8855 14.1145C18.3856 14.6146 18.6665 15.2928 18.6665 16.0001C18.6665 16.7073 18.3856 17.3856 17.8855 17.8857C17.3854 18.3858 16.7071 18.6667 15.9998 18.6667C15.2926 18.6667 14.6143 18.3858 14.1142 17.8857C13.6141 17.3856 13.3332 16.7073 13.3332 16.0001Z" fill="black"/>
</svg>
