<svg width="30" height="29" viewBox="0 0 30 29" fill="none" xmlns="http://www.w3.org/2000/svg">
<g clip-path="url(#clip0_2_714)">
<path d="M26.6657 17.6568C24.9586 23.9447 18.4472 27.6876 12.1242 26.0155C5.80122 24.3433 2.05839 17.8888 3.76553 11.6008C5.47267 5.31281 11.984 1.56998 18.307 3.24211C24.63 4.91423 28.3728 11.3688 26.6657 17.6568Z" fill="#E6AC39"/>
<path d="M9.66383 19.2629L12.7549 7.87708L17.449 9.11849C18.827 9.48291 19.8004 10.024 20.3693 10.7419C20.9382 11.4597 21.0835 12.3309 20.8065 13.3512C20.6553 13.9084 20.3776 14.3634 19.979 14.7133C19.5782 15.0625 19.0949 15.2665 18.5323 15.3305C19.074 15.6316 19.4518 16.0449 19.6655 16.5796C19.8826 17.1106 19.9055 17.6955 19.7311 18.338C19.4344 19.4309 18.8612 20.1693 18.0113 20.5462C17.1586 20.9247 16.0893 20.9484 14.7958 20.6201L9.66383 19.2629ZM13.8084 13.0379L16.3047 13.6981C17.4931 13.9895 18.2072 13.6979 18.4575 12.7758C18.5978 12.2592 18.5484 11.8481 18.3093 11.5423C18.0724 11.2372 17.6315 10.997 16.9854 10.8262L14.5815 10.1904L13.8084 13.0379ZM13.3448 14.7456L12.4176 18.1609L15.1907 18.8943C15.7402 19.0396 17.0683 19.1048 17.3992 17.886C17.7301 16.6672 17.2794 15.8021 16.2059 15.5022L13.3448 14.7456Z" fill="#F2F2F2"/>
<path d="M14.9351 6.62866L16.6494 7.08243L15.8776 9.92779L14.1633 9.47402L14.9351 6.62866ZM17.7937 7.38531L19.508 7.83908L18.7362 10.6844L17.0219 10.2307L17.7937 7.38531ZM11.6951 18.5732L13.4094 19.027L12.6377 21.8723L10.9233 21.4186L11.6951 18.5732ZM14.5538 19.3299L16.2681 19.7836L15.4963 22.629L13.782 22.1752L14.5538 19.3299Z" fill="#F2F2F2"/>
</g>
<defs>
<clipPath id="clip0_2_714">
<rect width="28.4972" height="28.2486" fill="white" transform="translate(0.967041 0.504395)"/>
</clipPath>
</defs>
</svg>
