<svg width="14" height="17" viewBox="0 0 14 17" fill="none" xmlns="http://www.w3.org/2000/svg">
<path d="M4.6787 13.2538C4.25003 13.2538 3.8832 13.1013 3.57819 12.7963C3.27319 12.4913 3.12043 12.1242 3.11991 11.695V2.34224C3.11991 1.91357 3.27267 1.54674 3.57819 1.24173C3.88372 0.936729 4.25055 0.783967 4.6787 0.783447H11.6933C12.1219 0.783447 12.489 0.936209 12.7946 1.24173C13.1001 1.54726 13.2526 1.91409 13.2521 2.34224V11.695C13.2521 12.1237 13.0996 12.4908 12.7946 12.7963C12.4896 13.1018 12.1225 13.2543 11.6933 13.2538H4.6787ZM4.6787 11.695H11.6933V2.34224H4.6787V11.695ZM1.56111 16.3714C1.13245 16.3714 0.765609 16.2189 0.460605 15.9139C0.155601 15.6089 0.00283893 15.2418 0.00231934 14.8126V3.90104H1.56111V14.8126H10.1345V16.3714H1.56111Z" fill="black"/>
</svg>
