<svg width="35" height="34" viewBox="0 0 35 34" fill="none" xmlns="http://www.w3.org/2000/svg">
<path d="M17.5534 17.5997C17.5534 17.5997 15.8899 25.5903 25.1323 29.3983" stroke="black" stroke-width="2.53079" stroke-linecap="round" stroke-linejoin="round"/>
<path d="M20.4486 32.4369C15.6046 29.702 11.8675 24.4632 12.4766 18.7251C12.4816 17.6284 12.7505 16.5491 13.2606 15.5782C13.7707 14.6074 14.507 13.7736 15.4072 13.1473C16.5648 12.5734 17.9008 12.4747 19.1302 12.8722C20.3595 13.2696 21.3848 14.1319 21.9873 15.2748C23.5766 17.6166 22.4513 20.6384 23.6137 23.105C25.4022 26.1437 29.9407 25.376 31.6566 22.604C34.2312 18.6357 32.8629 12.577 30.2343 8.92928C26.1057 3.29912 20.0386 0.312797 11.439 3.29744C3.35902 6.05093 -0.644686 17.4378 3.61041 24.9998" stroke="black" stroke-width="2.53079" stroke-linecap="round" stroke-linejoin="round"/>
<path d="M10.7134 29.1469C9.24265 27.4446 8.16846 25.4368 7.56852 23.2687C6.9715 21.1076 6.866 18.8402 7.25977 16.633C7.48176 15.1642 8.00444 13.7569 8.79511 12.4993C9.59077 11.233 10.6334 10.1399 11.8607 9.28525C13.6821 8.20628 15.7841 7.69575 17.8975 7.81908C19.2658 7.86126 20.6139 8.17002 21.8607 8.7251C23.1075 9.28019 24.2329 10.0715 25.1676 11.0534C27.2019 13.7103 28.2149 17.0091 28.0223 20.3498" stroke="black" stroke-width="2.53079" stroke-linecap="round" stroke-linejoin="round"/>
</svg>
