<svg width="42" height="40" viewBox="0 0 42 40" fill="none" xmlns="http://www.w3.org/2000/svg">
<path fill-rule="evenodd" clip-rule="evenodd" d="M40.681 39.1115C37.7959 19.3633 20.0766 9.77105 1.57852 7.58998C1.26088 7.55192 1.03249 7.26353 1.07055 6.94588C1.10861 6.62824 1.39696 6.39989 1.71461 6.43795C20.7309 8.67903 38.863 18.6431 41.8286 38.9446C41.8755 39.2608 41.6559 39.555 41.3383 39.6019C41.0221 39.6487 40.7279 39.4291 40.681 39.1115Z" fill="black"/>
<path fill-rule="evenodd" clip-rule="evenodd" d="M1.99375 7.05458C2.8164 7.65621 3.85717 8.39982 3.97281 8.48765C7.10681 10.8678 9.7036 13.6066 11.9901 16.8196C12.176 17.0802 12.1145 17.4432 11.8539 17.6291C11.5933 17.815 11.2303 17.7535 11.0444 17.4929C8.82825 14.3765 6.31053 11.7197 3.27021 9.41128C3.09309 9.27661 0.752436 7.60643 0.304512 7.23316C0.120073 7.08093 0.0630248 6.93747 0.0527782 6.90234C-0.00870152 6.7179 0.0278821 6.57299 0.0776514 6.4676C0.13474 6.34903 0.276691 6.17629 0.551886 6.08846C0.840255 5.9977 1.48143 5.95671 1.64245 5.93329C4.0709 5.57319 6.81261 5.3829 9.3084 4.69199C11.6885 4.03328 13.8476 2.91787 15.2324 0.682648C15.4007 0.410381 15.7593 0.326939 16.0316 0.495277C16.3039 0.663614 16.3873 1.02224 16.219 1.29451C14.6703 3.79322 12.2784 5.07406 9.61867 5.81035C7.13752 6.49687 4.42073 6.70473 1.99375 7.05458Z" fill="black"/>
</svg>
