<svg width="14" height="17" viewBox="0 0 14 17" fill="none" xmlns="http://www.w3.org/2000/svg">
<path d="M8.6765 11.6851H12.658V15.6666M5.49131 5.31473H1.50983V1.33325M12.9905 6.11374C12.544 5.00869 11.7965 4.05104 10.8329 3.34965C9.86927 2.64827 8.72839 2.23109 7.5396 2.14588C6.35081 2.06066 5.1617 2.31063 4.1079 2.86741C3.05411 3.42418 2.17778 4.26564 1.57826 5.29572M1.177 10.8865C1.62347 11.9915 2.37099 12.9492 3.3346 13.6506C4.29821 14.3519 5.44025 14.7686 6.62904 14.8538C7.81783 14.939 9.00597 14.6891 10.0598 14.1323C11.1136 13.5755 11.9893 12.7342 12.5888 11.7042" stroke="white" stroke-width="1.59259" stroke-linecap="round" stroke-linejoin="round"/>
</svg>
