<svg width="20" height="19" viewBox="0 0 20 19" fill="none" xmlns="http://www.w3.org/2000/svg">
<path d="M10.0721 12.1936C10.7745 12.1936 11.4481 11.9146 11.9448 11.4179C12.4414 10.9213 12.7204 10.2477 12.7204 9.54528C12.7204 8.84291 12.4414 8.1693 11.9448 7.67264C11.4481 7.17599 10.7745 6.89697 10.0721 6.89697C9.36976 6.89697 8.69615 7.17599 8.1995 7.67264C7.70285 8.1693 7.42383 8.84291 7.42383 9.54528C7.42383 10.2477 7.70285 10.9213 8.1995 11.4179C8.69615 11.9146 9.36976 12.1936 10.0721 12.1936Z" stroke="black" stroke-width="1.32415" stroke-miterlimit="10" stroke-linecap="round" stroke-linejoin="round"/>
<path d="M1.24438 10.3219V8.76819C1.24438 7.85011 1.99474 7.09092 2.92165 7.09092C4.51946 7.09092 5.17271 5.96098 4.36939 4.57503C3.91035 3.78054 4.18401 2.7477 4.98733 2.28866L6.51452 1.41471C7.21191 0.999812 8.11233 1.24699 8.52724 1.94438L8.62434 2.1121C9.41883 3.49805 10.7253 3.49805 11.5287 2.1121L11.6258 1.94438C12.0407 1.24699 12.9411 0.999812 13.6385 1.41471L15.1657 2.28866C15.969 2.7477 16.2426 3.78054 15.7836 4.57503C14.9803 5.96098 15.6335 7.09092 17.2313 7.09092C18.1494 7.09092 18.9086 7.84128 18.9086 8.76819V10.3219C18.9086 11.2399 18.1583 11.9991 17.2313 11.9991C15.6335 11.9991 14.9803 13.1291 15.7836 14.515C16.2426 15.3183 15.969 16.3424 15.1657 16.8014L13.6385 17.6753C12.9411 18.0902 12.0407 17.8431 11.6258 17.1457L11.5287 16.9779C10.7342 15.592 9.42766 15.592 8.62434 16.9779L8.52724 17.1457C8.11233 17.8431 7.21191 18.0902 6.51452 17.6753L4.98733 16.8014C4.60253 16.5798 4.32135 16.2147 4.2055 15.786C4.08965 15.3574 4.14859 14.9003 4.36939 14.515C5.17271 13.1291 4.51946 11.9991 2.92165 11.9991C1.99474 11.9991 1.24438 11.2399 1.24438 10.3219Z" stroke="black" stroke-width="1.32415" stroke-miterlimit="10" stroke-linecap="round" stroke-linejoin="round"/>
</svg>
