<svg width="1276" height="795" viewBox="0 0 1276 795" fill="none" xmlns="http://www.w3.org/2000/svg">
<mask id="mask0_2_1154" style="mask-type:alpha" maskUnits="userSpaceOnUse" x="921" y="0" width="355" height="353">
<rect x="921.117" y="3.05176e-05" width="354.784" height="352.83" fill="url(#paint0_radial_2_1154)"/>
</mask>
<g mask="url(#mask0_2_1154)">
<path d="M933.473 184.182L944.616 184.182L944.616 195.09L933.473 195.09L933.473 184.182Z" fill="#D9D9D9"/>
<path d="M1088.3 184.182L1099.44 184.182L1099.44 195.09L1088.3 195.09L1088.3 184.182Z" fill="#D9D9D9"/>
<path d="M1243.13 184.182L1254.27 184.182L1254.27 195.09L1243.13 195.09L1243.13 184.182Z" fill="#D9D9D9"/>
<path d="M1140.5 83.1394L1151.64 83.1394L1151.64 94.0475L1140.5 94.0475L1140.5 83.1394Z" fill="#D9D9D9"/>
<path d="M1036.69 285.799L1047.83 285.799L1047.83 296.707L1036.69 296.707L1036.69 285.799Z" fill="#D9D9D9"/>
<path d="M933.473 183.831L933.122 183.831L933.122 184.182L933.122 195.09L933.122 195.442L933.473 195.442L944.616 195.442L944.967 195.442L944.967 195.09L944.967 184.182L944.967 183.831L944.616 183.831L933.473 183.831ZM1088.3 183.831L1087.95 183.831L1087.95 184.182L1087.95 195.09L1087.95 195.442L1088.3 195.442L1099.44 195.442L1099.8 195.442L1099.8 195.09L1099.8 184.182L1099.8 183.831L1099.44 183.831L1088.3 183.831ZM1243.13 183.831L1242.78 183.831L1242.78 184.182L1242.78 195.09L1242.78 195.442L1243.13 195.442L1254.27 195.442L1254.62 195.442L1254.62 195.09L1254.62 184.182L1254.62 183.831L1254.27 183.831L1243.13 183.831ZM1140.5 82.7881L1140.15 82.7881L1140.15 83.1394L1140.15 94.0475L1140.15 94.3988L1140.5 94.3988L1151.64 94.3988L1151.99 94.3988L1151.99 94.0475L1151.99 83.1394L1151.99 82.7881L1151.64 82.7881L1140.5 82.7881ZM1036.69 285.448L1036.34 285.448L1036.34 285.799L1036.34 296.707L1036.34 297.059L1036.69 297.059L1047.83 297.059L1048.19 297.059L1048.19 296.707L1048.19 285.799L1048.19 285.448L1047.83 285.448L1036.69 285.448Z" stroke="#292929" stroke-opacity="0.21" stroke-width="0.702685"/>
</g>
<mask id="mask1_2_1154" style="mask-type:alpha" maskUnits="userSpaceOnUse" x="0" y="442" width="355" height="353">
<rect x="0.00012207" y="442.17" width="354.784" height="352.83" fill="url(#paint1_radial_2_1154)"/>
</mask>
<g mask="url(#mask1_2_1154)">
<path d="M12.356 626.352L23.499 626.352L23.499 637.26L12.356 637.26L12.356 626.352Z" fill="#D9D9D9"/>
<path d="M167.184 626.352L178.327 626.352L178.327 637.26L167.184 637.26L167.184 626.352Z" fill="#D9D9D9"/>
<path d="M322.013 626.352L333.156 626.352L333.156 637.26L322.013 637.26L322.013 626.352Z" fill="#D9D9D9"/>
<path d="M219.38 525.309L230.523 525.309L230.523 536.217L219.38 536.217L219.38 525.309Z" fill="#D9D9D9"/>
<path d="M115.575 727.969L126.718 727.969L126.718 738.877L115.575 738.877L115.575 727.969Z" fill="#D9D9D9"/>
<path d="M12.356 626.001L12.0047 626.001L12.0047 626.352L12.0047 637.26L12.0047 637.612L12.356 637.612L23.499 637.612L23.8503 637.612L23.8503 637.26L23.8503 626.352L23.8503 626.001L23.499 626.001L12.356 626.001ZM167.184 626.001L166.833 626.001L166.833 626.352L166.833 637.26L166.833 637.612L167.184 637.612L178.327 637.612L178.679 637.612L178.679 637.26L178.679 626.352L178.679 626.001L178.327 626.001L167.184 626.001ZM322.013 626.001L321.661 626.001L321.661 626.352L321.661 637.26L321.661 637.612L322.013 637.612L333.156 637.612L333.507 637.612L333.507 637.26L333.507 626.352L333.507 626.001L333.156 626.001L322.013 626.001ZM219.38 524.958L219.029 524.958L219.029 525.309L219.029 536.217L219.029 536.569L219.38 536.569L230.523 536.569L230.875 536.569L230.875 536.217L230.875 525.309L230.875 524.958L230.523 524.958L219.38 524.958ZM115.575 727.618L115.224 727.618L115.224 727.969L115.224 738.877L115.224 739.229L115.575 739.229L126.718 739.229L127.069 739.229L127.069 738.877L127.069 727.969L127.069 727.618L126.718 727.618L115.575 727.618Z" stroke="#292929" stroke-opacity="0.21" stroke-width="0.702685"/>
</g>
<defs>
<radialGradient id="paint0_radial_2_1154" cx="0" cy="0" r="1" gradientUnits="userSpaceOnUse" gradientTransform="translate(1098.51 176.415) rotate(131.692) scale(201.982 202.113)">
<stop stop-color="#212121"/>
<stop offset="1" stop-color="white" stop-opacity="0.02"/>
</radialGradient>
<radialGradient id="paint1_radial_2_1154" cx="0" cy="0" r="1" gradientUnits="userSpaceOnUse" gradientTransform="translate(177.392 618.585) rotate(131.692) scale(201.982 202.113)">
<stop stop-color="#212121"/>
<stop offset="1" stop-color="white" stop-opacity="0.02"/>
</radialGradient>
</defs>
</svg>
